<svg t="1739626789318" class="icon" viewBox="0 0 3251 1024" version="1.1" xmlns="http://www.w3.org/2000/svg" p-id="7046" width="200" height="200"><path d="M750.116 841.524c-5.106 0-222.422-0.081-222.422-0.081-102.512 0-148.705-16.288-186.091-130.525L192.981 171.531l-0.405 0.107c-11.452-37.25-46.108-64.316-87.115-64.316-50.296 0-91.139 40.801-91.139 91.166 0 11.711 2.323 22.921 6.374 33.226l156.944 560.067c36.304 124.596 103.864 232.011 231.983 232.011 0 0 335.389 0 340.495 0 50.325 0 91.141-40.801 91.141-91.114C841.258 882.301 800.441 841.524 750.116 841.524z" fill="#F74646" p-id="7047"></path><path d="M890.771 581.838c-3.781 0-163.805-0.053-163.805-0.053-75.474 0-109.509-12.292-137.064-98.556L480.449 75.933l-0.27 0.081c-8.428-28.12-33.955-48.555-64.127-48.555-37.062 0-67.155 30.794-67.155 68.828 0 8.859 1.73 17.315 4.7 25.094l115.559 422.895c26.771 94.085 76.501 175.19 170.884 175.19 0 0 246.949 0 250.731 0 37.062 0 67.126-30.806 67.126-68.787C957.898 612.633 927.832 581.838 890.771 581.838z" fill="#F74646" p-id="7048"></path><path d="M970.162 354.865c-2.405 0-104.242-0.055-104.242-0.055-48.029 0-69.667-7.86-87.198-63.073L709.084 31.038l-0.162 0.054C703.52 13.088 687.313 0 668.079 0c-23.553 0-42.681 19.733-42.681 44.059 0 5.686 1.083 11.089 2.972 16.071l73.529 270.694c17.017 60.211 48.674 112.13 108.696 112.13 0 0 157.16 0 159.565 0 23.582 0 42.706-19.72 42.706-44.045C1012.868 374.571 993.743 354.865 970.162 354.865z" fill="#F74646" p-id="7049"></path><path d="M1900.116 841.524c-5.106 0-222.422-0.081-222.422-0.081-102.512 0-148.705-16.288-186.091-130.525l-148.623-539.388-0.405 0.107c-11.452-37.25-46.108-64.316-87.115-64.316-50.296 0-91.139 40.801-91.139 91.166 0 11.711 2.323 22.921 6.374 33.226l156.944 560.067c36.304 124.596 103.864 232.011 231.983 232.011 0 0 335.389 0 340.495 0 50.325 0 91.141-40.801 91.141-91.114C1991.258 882.301 1950.441 841.524 1900.116 841.524z" fill="#F2E35A" p-id="7050"></path><path d="M2040.771 581.838c-3.781 0-163.805-0.053-163.805-0.053-75.474 0-109.509-12.292-137.063-98.556L1630.449 75.933l-0.27 0.081c-8.428-28.12-33.955-48.555-64.127-48.555-37.062 0-67.155 30.794-67.155 68.828 0 8.859 1.73 17.315 4.7 25.094l115.559 422.895c26.771 94.085 76.501 175.19 170.884 175.19 0 0 246.949 0 250.731 0 37.062 0 67.126-30.806 67.126-68.787C2107.898 612.633 2077.832 581.838 2040.771 581.838z" fill="#F2E35A" p-id="7051"></path><path d="M2120.162 354.865c-2.405 0-104.241-0.055-104.241-0.055-48.029 0-69.667-7.86-87.198-63.073l-69.638-260.699-0.162 0.054C1853.52 13.088 1837.313 0 1818.079 0c-23.553 0-42.681 19.733-42.681 44.059 0 5.686 1.083 11.089 2.972 16.071l73.529 270.694c17.017 60.211 48.674 112.13 108.696 112.13 0 0 157.16 0 159.565 0 23.582 0 42.706-19.72 42.706-44.045C2162.868 374.571 2143.743 354.865 2120.162 354.865z" fill="#F2E35A" p-id="7052"></path><path d="M2972.116 841.524c-5.106 0-222.422-0.081-222.422-0.081-102.512 0-148.705-16.288-186.091-130.525l-148.623-539.388-0.405 0.107c-11.452-37.25-46.108-64.316-87.115-64.316-50.296 0-91.139 40.801-91.139 91.166 0 11.711 2.323 22.921 6.374 33.226l156.944 560.067c36.304 124.596 103.864 232.011 231.983 232.011 0 0 335.389 0 340.495 0 50.325 0 91.141-40.801 91.141-91.114C3063.258 882.301 3022.441 841.524 2972.116 841.524z" fill="#77E04F" p-id="7053"></path><path d="M3112.771 581.838c-3.781 0-163.805-0.053-163.805-0.053-75.474 0-109.509-12.292-137.063-98.556L2702.449 75.933l-0.27 0.081c-8.427-28.12-33.955-48.555-64.127-48.555-37.062 0-67.155 30.794-67.155 68.828 0 8.859 1.73 17.315 4.7 25.094l115.559 422.895c26.771 94.085 76.501 175.19 170.884 175.19 0 0 246.949 0 250.731 0 37.062 0 67.126-30.806 67.126-68.787C3179.898 612.633 3149.832 581.838 3112.771 581.838z" fill="#77E04F" p-id="7054"></path><path d="M3192.162 354.865c-2.405 0-104.241-0.055-104.241-0.055-48.029 0-69.667-7.86-87.198-63.073l-69.638-260.699-0.162 0.054C2925.52 13.088 2909.313 0 2890.079 0c-23.553 0-42.681 19.733-42.681 44.059 0 5.686 1.083 11.089 2.972 16.071l73.529 270.694c17.017 60.211 48.674 112.13 108.696 112.13 0 0 157.16 0 159.565 0 23.582 0 42.706-19.72 42.706-44.045C3234.868 374.571 3215.743 354.865 3192.162 354.865z" fill="#77E04F" p-id="7055"></path></svg>